<svg width="32" height="32" viewBox="0 0 32 32" fill="none" xmlns="http://www.w3.org/2000/svg">
  <rect width="32" height="32" rx="8" fill="#3b82f6"/>
  <path d="M10 22V10H14.5C15.6935 10 16.6875 10.2917 17.4821 10.875C18.2768 11.4583 18.6741 12.3333 18.6741 13.5C18.6741 14.6667 18.2768 15.5417 17.4821 16.125C16.6875 16.7083 15.6935 17 14.5 17H12.5V22H10ZM12.5 15H14.3C14.9333 15 15.4167 14.875 15.75 14.625C16.0833 14.375 16.25 14 16.25 13.5C16.25 13 16.0833 12.625 15.75 12.375C15.4167 12.125 14.9333 12 14.3 12H12.5V15Z" fill="white"/>
  <circle cx="21" cy="21" r="3" fill="#14b8a6"/>
</svg>
